<svg xmlns="http://www.w3.org/2000/svg" xmlns:xlink="http://www.w3.org/1999/xlink" version="1.1" id="Layer_1" x="0" y="0" viewBox="0 0 233.1 140.4" xml:space="preserve"><style type="text/css">
	.st0{fill:#28E617;}
	.st1{fill-rule:evenodd;clip-rule:evenodd;fill:#23C4F5;}
	.st2{fill-rule:evenodd;clip-rule:evenodd;fill:#28E617;}
</style><path class="st0" d="M81.5 104.9L71 136.8H57.5L91.9 35.5h15.8l34.6 101.3h-14l-10.8-31.8H81.5zM114.7 94.7l-9.9-29.1c-2.3-6.6-3.8-12.6-5.3-18.5h-0.3c-1.5 6-3.2 12.2-5.1 18.3l-9.9 29.3H114.7z"/><path class="st1" d="M155.7 58.8h10.6c2.7 0 5.1 1 7.1 2.9 2 2 2.9 4.3 2.9 7v68.1h-20.6V58.8z"/><path class="st0" d="M194.4 86.8c0-8.6-0.2-15.9-0.6-22.7h11.6l0.5 14.3h0.6c3.3-9.8 11.3-15.9 20.1-15.9 1.5 0 2.6 0.2 3.8 0.5v12.5c-1.4-0.3-2.7-0.5-4.5-0.5 -9.3 0-15.9 7.1-17.7 17 -0.3 1.8-0.6 3.9-0.6 6.2v38.8h-13.1V86.8z"/><path class="st2" d="M84.6 41.5c1.4-1.3 2.6-2.7 3.8-4.1 -35.5 4.4-62.1-12.6-62.1-12.6C49.6 39.1 69.2 42.6 84.6 41.5z"/><path class="st1" d="M153.2 16.6c0.8 5.8 0 13.3-0.5 19.8 -1.7 20.7 18 21.3 23 8.5C180.7 31.7 167.6 20.1 153.2 16.6z"/><path class="st2" d="M9.4 22.2C9.1 19 9 16 9 13.5c0.2-3.7 0.8-6.3 1-7 31.9 6.3 60.1-9.6 98 26.2C94-3.6 34.8 6.3 3.2 2.4c0 0.9-0.1 1.7-0.1 2.5C0.5 71.7 78.6 60.2 78.6 60.2 24.7 60.2 11.7 38.1 9.4 22.2z"/></svg>