<?xml version="1.0" encoding="utf-8"?>
<!-- Generator: Adobe Illustrator 19.1.0, SVG Export Plug-In . SVG Version: 6.00 Build 0)  -->
<svg version="1.1" id="Layer_1" xmlns="http://www.w3.org/2000/svg" xmlns:xlink="http://www.w3.org/1999/xlink" x="0px" y="0px"
	 viewBox="0 0 226 136.5" style="enable-background:new 0 0 226 136.5;" xml:space="preserve">
<style type="text/css">
	.st0{fill:#28E617;}
	.st1{fill-rule:evenodd;clip-rule:evenodd;fill:#23C4F5;}
	.st2{fill-rule:evenodd;clip-rule:evenodd;fill:#28E617;}
</style>
<g>
	<g>
		<path class="st0" d="M95,34.5h16.4l36.7,100.9h-22l-6.7-20.8H80.1l-6.5,20.8h-22l33.4-94.2C86.8,36.8,90.2,34.5,95,34.5z
			 M99.7,54.8L85.7,97.6h28.2L99.7,54.8z"/>
	</g>
	<path class="st1" d="M153.6,57.4h10.6c2.7,0,5.1,1,7.1,2.9c2,2,2.9,4.3,2.9,7v68.1h-20.6V57.4z"/>
	<g>
		<path class="st0" d="M181.3,135.5V97.6c0-7.6,1.1-14,3.4-19.2c2.2-5.2,5.3-9.3,9.2-12.5c3.7-2.9,8.1-5.1,13.1-6.5
			c5-1.4,10.1-2.1,15.4-2.1c0.4,0,0.9,0,1.5,0c0.6,0,1.1,0,1.5,0v20.8h-6.7c-5.7,0-9.9,1.4-12.6,4.1c-2.7,2.7-4.1,7-4.1,12.9v40.2
			H181.3z"/>
	</g>
	<path class="st2" d="M82.5,40.2c1.4-1.3,2.6-2.7,3.8-4.1c-35.5,4.4-62.1-12.6-62.1-12.6C47.4,37.8,67.1,41.3,82.5,40.2z"/>
	<path class="st1" d="M151.1,15.3c0.8,5.8,0,13.3-0.5,19.8c-1.7,20.7,18,21.3,23,8.5C178.6,30.3,165.4,18.8,151.1,15.3z"/>
	<g>
		<path class="st2" d="M9.9,37.3c0,0-9.8-9.8-8.8-36.2c31.6,3.9,90.8-6,104.8,30.4C67.7-4.8,39.3,11.8,7,5C7,5,6,23.6,9.9,37.3z"/>
		<path class="st2" d="M7.9,5c0,0-15.7,53.9,68.5,53.9c0,0-79.3,11.7-75.4-56.8L7.9,5z"/>
	</g>
</g>
</svg>
