<?xml version="1.0" encoding="utf-8"?>
<!-- Generator: Adobe Illustrator 19.1.0, SVG Export Plug-In . SVG Version: 6.00 Build 0)  -->
<svg version="1.1" id="Layer_1" xmlns="http://www.w3.org/2000/svg" xmlns:xlink="http://www.w3.org/1999/xlink" x="0px" y="0px"
	 viewBox="0 0 53.8 32.8" style="enable-background:new 0 0 53.8 32.8;" xml:space="preserve">
<style type="text/css">
	.st0{fill:#28E617;}
	.st1{font-family:'Harabara';}
	.st2{font-size:35.3617px;}
	.st3{fill-rule:evenodd;clip-rule:evenodd;fill:#23C4F5;}
	.st4{fill-rule:evenodd;clip-rule:evenodd;fill:#28E617;}
</style>
<g>
	<text transform="matrix(1 0 0 1 12.2961 32.1566)" class="st0 st1 st2">A</text>
	<path class="st3" d="M36.3,13.8h2.5c0.6,0,1.2,0.2,1.7,0.7c0.5,0.5,0.7,1,0.7,1.7v16h-4.8V13.8z"/>
	<text transform="matrix(1 0 0 1 42.8161 32.1566)" class="st0 st1 st2">r</text>
	<path class="st4" d="M19.6,9.7c0.3-0.3,0.6-0.6,0.9-1c-8.4,1-14.6-3-14.6-3C11.3,9.2,15.9,10,19.6,9.7z"/>
	<path class="st3" d="M35.7,3.9c0.2,1.4,0,3.1-0.1,4.7c-0.4,4.9,4.2,5,5.4,2C42.2,7.4,39.1,4.7,35.7,3.9z"/>
	<g>
		<path class="st4" d="M2.5,9c0,0-2.3-2.3-2.1-8.5c7.4,0.9,21.4-1.4,24.7,7.1c-9-8.5-15.7-4.6-23.3-6.2C1.8,1.4,1.6,5.8,2.5,9z"/>
		<path class="st4" d="M2,1.4c0,0-3.7,12.7,16.1,12.7c0,0-18.7,2.8-17.7-13.4L2,1.4z"/>
	</g>
</g>
</svg>
